solid OpenSCAD_Model
  facet normal -1 0 0
    outer loop
      vertex -23.75 0 0
      vertex -23.75 7.5 2.5
      vertex -23.75 7.5 0
    endloop
  endfacet
  facet normal -1 -0 0
    outer loop
      vertex -23.75 7.5 2.5
      vertex -23.75 0 0
      vertex -23.75 0 2.5
    endloop
  endfacet
  facet normal 0 0 1
    outer loop
      vertex -5 7.5 2.5
      vertex -18.25 3.75 2.5
      vertex -5 0 2.5
    endloop
  endfacet
  facet normal 0 0 1
    outer loop
      vertex -5 7.5 2.5
      vertex -18.3832 4.4197 2.5
      vertex -18.25 3.75 2.5
    endloop
  endfacet
  facet normal 0 0 1
    outer loop
      vertex -5 7.5 2.5
      vertex -18.7626 4.98744 2.5
      vertex -18.3832 4.4197 2.5
    endloop
  endfacet
  facet normal 0 0 1
    outer loop
      vertex -5 7.5 2.5
      vertex -19.3303 5.36679 2.5
      vertex -18.7626 4.98744 2.5
    endloop
  endfacet
  facet normal -0 0 1
    outer loop
      vertex -23.75 7.5 2.5
      vertex -19.3303 5.36679 2.5
      vertex -5 7.5 2.5
    endloop
  endfacet
  facet normal 0 0 1
    outer loop
      vertex -21.6168 4.4197 2.5
      vertex -23.75 7.5 2.5
      vertex -21.75 3.75 2.5
    endloop
  endfacet
  facet normal 0 0 1
    outer loop
      vertex -21.2374 4.98744 2.5
      vertex -23.75 7.5 2.5
      vertex -21.6168 4.4197 2.5
    endloop
  endfacet
  facet normal 0 0 1
    outer loop
      vertex -20.6697 5.36679 2.5
      vertex -23.75 7.5 2.5
      vertex -21.2374 4.98744 2.5
    endloop
  endfacet
  facet normal 0 0 1
    outer loop
      vertex -20 5.5 2.5
      vertex -23.75 7.5 2.5
      vertex -20.6697 5.36679 2.5
    endloop
  endfacet
  facet normal 0 0 1
    outer loop
      vertex -19.3303 5.36679 2.5
      vertex -23.75 7.5 2.5
      vertex -20 5.5 2.5
    endloop
  endfacet
  facet normal -0 0 1
    outer loop
      vertex -18.3832 3.0803 2.5
      vertex -5 0 2.5
      vertex -18.25 3.75 2.5
    endloop
  endfacet
  facet normal -0 0 1
    outer loop
      vertex -18.7626 2.51256 2.5
      vertex -5 0 2.5
      vertex -18.3832 3.0803 2.5
    endloop
  endfacet
  facet normal -0 0 1
    outer loop
      vertex -19.3303 2.13321 2.5
      vertex -5 0 2.5
      vertex -18.7626 2.51256 2.5
    endloop
  endfacet
  facet normal 0 0 1
    outer loop
      vertex -23.75 0 2.5
      vertex -19.3303 2.13321 2.5
      vertex -20 2 2.5
    endloop
  endfacet
  facet normal 0 0 1
    outer loop
      vertex -23.75 0 2.5
      vertex -21.75 3.75 2.5
      vertex -23.75 7.5 2.5
    endloop
  endfacet
  facet normal 0 0 1
    outer loop
      vertex -19.3303 2.13321 2.5
      vertex -23.75 0 2.5
      vertex -5 0 2.5
    endloop
  endfacet
  facet normal 0 0 1
    outer loop
      vertex -20.6697 2.13321 2.5
      vertex -23.75 0 2.5
      vertex -20 2 2.5
    endloop
  endfacet
  facet normal 0 0 1
    outer loop
      vertex -21.2374 2.51256 2.5
      vertex -23.75 0 2.5
      vertex -20.6697 2.13321 2.5
    endloop
  endfacet
  facet normal 0 0 1
    outer loop
      vertex -21.6168 3.0803 2.5
      vertex -23.75 0 2.5
      vertex -21.2374 2.51256 2.5
    endloop
  endfacet
  facet normal 0 0 1
    outer loop
      vertex -21.75 3.75 2.5
      vertex -23.75 0 2.5
      vertex -21.6168 3.0803 2.5
    endloop
  endfacet
  facet normal 0 0 1
    outer loop
      vertex 23.75 7.5 2.5
      vertex 21.75 3.75 2.5
      vertex 23.75 0 2.5
    endloop
  endfacet
  facet normal 0 0 1
    outer loop
      vertex 23.75 7.5 2.5
      vertex 21.6168 4.4197 2.5
      vertex 21.75 3.75 2.5
    endloop
  endfacet
  facet normal 0 0 1
    outer loop
      vertex 23.75 7.5 2.5
      vertex 21.2374 4.98744 2.5
      vertex 21.6168 4.4197 2.5
    endloop
  endfacet
  facet normal 0 0 1
    outer loop
      vertex 23.75 7.5 2.5
      vertex 20.6697 5.36679 2.5
      vertex 21.2374 4.98744 2.5
    endloop
  endfacet
  facet normal 0 0 1
    outer loop
      vertex 23.75 7.5 2.5
      vertex 20 5.5 2.5
      vertex 20.6697 5.36679 2.5
    endloop
  endfacet
  facet normal 0 0 1
    outer loop
      vertex 23.75 7.5 2.5
      vertex 19.3303 5.36679 2.5
      vertex 20 5.5 2.5
    endloop
  endfacet
  facet normal 0 0 1
    outer loop
      vertex 18.3832 4.4197 2.5
      vertex 5 7.5 2.5
      vertex 18.25 3.75 2.5
    endloop
  endfacet
  facet normal 0 0 1
    outer loop
      vertex 18.7626 4.98744 2.5
      vertex 5 7.5 2.5
      vertex 18.3832 4.4197 2.5
    endloop
  endfacet
  facet normal 0 0 1
    outer loop
      vertex 19.3303 5.36679 2.5
      vertex 5 7.5 2.5
      vertex 18.7626 4.98744 2.5
    endloop
  endfacet
  facet normal -0 0 1
    outer loop
      vertex 5 7.5 2.5
      vertex 19.3303 5.36679 2.5
      vertex 23.75 7.5 2.5
    endloop
  endfacet
  facet normal -0 0 1
    outer loop
      vertex 21.6168 3.0803 2.5
      vertex 23.75 0 2.5
      vertex 21.75 3.75 2.5
    endloop
  endfacet
  facet normal -0 0 1
    outer loop
      vertex 21.2374 2.51256 2.5
      vertex 23.75 0 2.5
      vertex 21.6168 3.0803 2.5
    endloop
  endfacet
  facet normal -0 0 1
    outer loop
      vertex 20.6697 2.13321 2.5
      vertex 23.75 0 2.5
      vertex 21.2374 2.51256 2.5
    endloop
  endfacet
  facet normal -0 0 1
    outer loop
      vertex 20 2 2.5
      vertex 23.75 0 2.5
      vertex 20.6697 2.13321 2.5
    endloop
  endfacet
  facet normal 0 0 1
    outer loop
      vertex 19.3303 2.13321 2.5
      vertex 23.75 0 2.5
      vertex 20 2 2.5
    endloop
  endfacet
  facet normal 0 0 1
    outer loop
      vertex 5 0 2.5
      vertex 18.25 3.75 2.5
      vertex 5 7.5 2.5
    endloop
  endfacet
  facet normal 0 0 1
    outer loop
      vertex 18.25 3.75 2.5
      vertex 5 0 2.5
      vertex 18.3832 3.0803 2.5
    endloop
  endfacet
  facet normal 0 0 1
    outer loop
      vertex 18.3832 3.0803 2.5
      vertex 5 0 2.5
      vertex 18.7626 2.51256 2.5
    endloop
  endfacet
  facet normal 0 0 1
    outer loop
      vertex 18.7626 2.51256 2.5
      vertex 5 0 2.5
      vertex 19.3303 2.13321 2.5
    endloop
  endfacet
  facet normal 0 0 1
    outer loop
      vertex 19.3303 2.13321 2.5
      vertex 5 0 2.5
      vertex 23.75 0 2.5
    endloop
  endfacet
  facet normal 1 -0 0
    outer loop
      vertex 23.75 0 2.5
      vertex 23.75 7.5 0
      vertex 23.75 7.5 2.5
    endloop
  endfacet
  facet normal 1 0 0
    outer loop
      vertex 23.75 7.5 0
      vertex 23.75 0 2.5
      vertex 23.75 0 0
    endloop
  endfacet
  facet normal 0 0 -1
    outer loop
      vertex 23.75 0 0
      vertex 21.75 3.75 0
      vertex 23.75 7.5 0
    endloop
  endfacet
  facet normal 0 0 -1
    outer loop
      vertex 23.75 0 0
      vertex 21.6168 3.0803 0
      vertex 21.75 3.75 0
    endloop
  endfacet
  facet normal 0 0 -1
    outer loop
      vertex 23.75 0 0
      vertex 21.2374 2.51256 0
      vertex 21.6168 3.0803 0
    endloop
  endfacet
  facet normal 0 0 -1
    outer loop
      vertex 23.75 0 0
      vertex 20.6697 2.13321 0
      vertex 21.2374 2.51256 0
    endloop
  endfacet
  facet normal 0 0 -1
    outer loop
      vertex 23.75 0 0
      vertex 20 2 0
      vertex 20.6697 2.13321 0
    endloop
  endfacet
  facet normal 0 0 -1
    outer loop
      vertex 23.75 0 0
      vertex 19.3303 2.13321 0
      vertex 20 2 0
    endloop
  endfacet
  facet normal 0 0 -1
    outer loop
      vertex 18.3832 3.0803 0
      vertex -18.25 3.75 0
      vertex 18.25 3.75 0
    endloop
  endfacet
  facet normal 0 0 -1
    outer loop
      vertex -18.3832 3.0803 0
      vertex 18.3832 3.0803 0
      vertex 18.7626 2.51256 0
    endloop
  endfacet
  facet normal 0 0 -1
    outer loop
      vertex -18.7626 2.51256 0
      vertex 18.7626 2.51256 0
      vertex 19.3303 2.13321 0
    endloop
  endfacet
  facet normal 0 0 -1
    outer loop
      vertex -19.3303 2.13321 0
      vertex 19.3303 2.13321 0
      vertex 23.75 0 0
    endloop
  endfacet
  facet normal 0 0 -1
    outer loop
      vertex 18.3832 3.0803 0
      vertex -18.3832 3.0803 0
      vertex -18.25 3.75 0
    endloop
  endfacet
  facet normal 0 0 -1
    outer loop
      vertex 18.7626 2.51256 0
      vertex -18.7626 2.51256 0
      vertex -18.3832 3.0803 0
    endloop
  endfacet
  facet normal 0 0 -1
    outer loop
      vertex 19.3303 2.13321 0
      vertex -19.3303 2.13321 0
      vertex -18.7626 2.51256 0
    endloop
  endfacet
  facet normal 0 0 -1
    outer loop
      vertex -23.75 0 0
      vertex -19.3303 2.13321 0
      vertex 23.75 0 0
    endloop
  endfacet
  facet normal -0 0 -1
    outer loop
      vertex -21.6168 3.0803 0
      vertex -23.75 0 0
      vertex -21.75 3.75 0
    endloop
  endfacet
  facet normal -0 0 -1
    outer loop
      vertex -21.2374 2.51256 0
      vertex -23.75 0 0
      vertex -21.6168 3.0803 0
    endloop
  endfacet
  facet normal -0 0 -1
    outer loop
      vertex -20.6697 2.13321 0
      vertex -23.75 0 0
      vertex -21.2374 2.51256 0
    endloop
  endfacet
  facet normal -0 0 -1
    outer loop
      vertex -20 2 0
      vertex -23.75 0 0
      vertex -20.6697 2.13321 0
    endloop
  endfacet
  facet normal 0 0 -1
    outer loop
      vertex -19.3303 2.13321 0
      vertex -23.75 0 0
      vertex -20 2 0
    endloop
  endfacet
  facet normal 0 0 -1
    outer loop
      vertex 21.6168 4.4197 0
      vertex 23.75 7.5 0
      vertex 21.75 3.75 0
    endloop
  endfacet
  facet normal 0 0 -1
    outer loop
      vertex 21.2374 4.98744 0
      vertex 23.75 7.5 0
      vertex 21.6168 4.4197 0
    endloop
  endfacet
  facet normal 0 0 -1
    outer loop
      vertex 20.6697 5.36679 0
      vertex 23.75 7.5 0
      vertex 21.2374 4.98744 0
    endloop
  endfacet
  facet normal 0 0 -1
    outer loop
      vertex 20 5.5 0
      vertex 23.75 7.5 0
      vertex 20.6697 5.36679 0
    endloop
  endfacet
  facet normal 0 0 -1
    outer loop
      vertex 19.3303 5.36679 0
      vertex 23.75 7.5 0
      vertex 20 5.5 0
    endloop
  endfacet
  facet normal 0 0 -1
    outer loop
      vertex -18.25 3.75 0
      vertex 18.3832 4.4197 0
      vertex 18.25 3.75 0
    endloop
  endfacet
  facet normal 0 0 -1
    outer loop
      vertex -18.3832 4.4197 0
      vertex 18.3832 4.4197 0
      vertex -18.25 3.75 0
    endloop
  endfacet
  facet normal 0 0 -1
    outer loop
      vertex 18.3832 4.4197 0
      vertex -18.3832 4.4197 0
      vertex 18.7626 4.98744 0
    endloop
  endfacet
  facet normal 0 0 -1
    outer loop
      vertex -18.7626 4.98744 0
      vertex 18.7626 4.98744 0
      vertex -18.3832 4.4197 0
    endloop
  endfacet
  facet normal 0 0 -1
    outer loop
      vertex 18.7626 4.98744 0
      vertex -18.7626 4.98744 0
      vertex 19.3303 5.36679 0
    endloop
  endfacet
  facet normal 0 0 -1
    outer loop
      vertex -19.3303 5.36679 0
      vertex 19.3303 5.36679 0
      vertex -18.7626 4.98744 0
    endloop
  endfacet
  facet normal 0 0 -1
    outer loop
      vertex 19.3303 5.36679 0
      vertex -19.3303 5.36679 0
      vertex 23.75 7.5 0
    endloop
  endfacet
  facet normal 0 0 -1
    outer loop
      vertex -23.75 7.5 0
      vertex -19.3303 5.36679 0
      vertex -20 5.5 0
    endloop
  endfacet
  facet normal 0 0 -1
    outer loop
      vertex -23.75 7.5 0
      vertex -21.75 3.75 0
      vertex -23.75 0 0
    endloop
  endfacet
  facet normal 0 0 -1
    outer loop
      vertex -19.3303 5.36679 0
      vertex -23.75 7.5 0
      vertex 23.75 7.5 0
    endloop
  endfacet
  facet normal 0 0 -1
    outer loop
      vertex -20.6697 5.36679 0
      vertex -23.75 7.5 0
      vertex -20 5.5 0
    endloop
  endfacet
  facet normal 0 0 -1
    outer loop
      vertex -21.2374 4.98744 0
      vertex -23.75 7.5 0
      vertex -20.6697 5.36679 0
    endloop
  endfacet
  facet normal 0 0 -1
    outer loop
      vertex -21.6168 4.4197 0
      vertex -23.75 7.5 0
      vertex -21.2374 4.98744 0
    endloop
  endfacet
  facet normal 0 0 -1
    outer loop
      vertex -21.75 3.75 0
      vertex -23.75 7.5 0
      vertex -21.6168 4.4197 0
    endloop
  endfacet
  facet normal 0 -1 0
    outer loop
      vertex -23.75 0 0
      vertex -5 0 2.5
      vertex -23.75 0 2.5
    endloop
  endfacet
  facet normal 0 -1 -0
    outer loop
      vertex -5 0 2.5
      vertex -23.75 0 0
      vertex 5 0 2.5
    endloop
  endfacet
  facet normal 0 -1 0
    outer loop
      vertex 23.75 0 0
      vertex 5 0 2.5
      vertex -23.75 0 0
    endloop
  endfacet
  facet normal 0 -1 0
    outer loop
      vertex 5 0 2.5
      vertex 23.75 0 0
      vertex 23.75 0 2.5
    endloop
  endfacet
  facet normal 0 -1 0
    outer loop
      vertex -5 0 17.7
      vertex 0 0 14.35
      vertex 5 0 17.7
    endloop
  endfacet
  facet normal 0 -1 0
    outer loop
      vertex -5 0 17.7
      vertex -0.631427 0 14.2244
      vertex 0 0 14.35
    endloop
  endfacet
  facet normal 0 -1 0
    outer loop
      vertex -5 0 17.7
      vertex -1.16673 0 13.8667
      vertex -0.631427 0 14.2244
    endloop
  endfacet
  facet normal 0 -1 0
    outer loop
      vertex -5 0 17.7
      vertex -1.5244 0 13.3314
      vertex -1.16673 0 13.8667
    endloop
  endfacet
  facet normal 0 -1 0
    outer loop
      vertex -5 0 17.7
      vertex -1.65 0 12.7
      vertex -1.5244 0 13.3314
    endloop
  endfacet
  facet normal 0 -1 0
    outer loop
      vertex -5 0 17.7
      vertex -1.5244 0 12.0686
      vertex -1.65 0 12.7
    endloop
  endfacet
  facet normal 0 -1 -0
    outer loop
      vertex -0.631427 0 11.1756
      vertex -5 0 2.5
      vertex 0 0 11.05
    endloop
  endfacet
  facet normal 0 -1 -0
    outer loop
      vertex -1.16673 0 11.5333
      vertex -5 0 2.5
      vertex -0.631427 0 11.1756
    endloop
  endfacet
  facet normal 0 -1 -0
    outer loop
      vertex -1.5244 0 12.0686
      vertex -5 0 2.5
      vertex -1.16673 0 11.5333
    endloop
  endfacet
  facet normal 0 -1 0
    outer loop
      vertex -5 0 2.5
      vertex -1.5244 0 12.0686
      vertex -5 0 17.7
    endloop
  endfacet
  facet normal 0 -1 0
    outer loop
      vertex 0.631427 0 14.2244
      vertex 5 0 17.7
      vertex 0 0 14.35
    endloop
  endfacet
  facet normal 0 -1 0
    outer loop
      vertex 1.16673 0 13.8667
      vertex 5 0 17.7
      vertex 0.631427 0 14.2244
    endloop
  endfacet
  facet normal 0 -1 0
    outer loop
      vertex 1.5244 0 13.3314
      vertex 5 0 17.7
      vertex 1.16673 0 13.8667
    endloop
  endfacet
  facet normal 0 -1 0
    outer loop
      vertex 1.65 0 12.7
      vertex 5 0 17.7
      vertex 1.5244 0 13.3314
    endloop
  endfacet
  facet normal 0 -1 0
    outer loop
      vertex 1.5244 0 12.0686
      vertex 5 0 17.7
      vertex 1.65 0 12.7
    endloop
  endfacet
  facet normal 0 -1 0
    outer loop
      vertex 5 0 2.5
      vertex 0 0 11.05
      vertex -5 0 2.5
    endloop
  endfacet
  facet normal 0 -1 0
    outer loop
      vertex 0 0 11.05
      vertex 5 0 2.5
      vertex 0.631427 0 11.1756
    endloop
  endfacet
  facet normal 0 -1 0
    outer loop
      vertex 1.5244 0 12.0686
      vertex 5 0 2.5
      vertex 5 0 17.7
    endloop
  endfacet
  facet normal 0 -1 0
    outer loop
      vertex 1.16673 0 11.5333
      vertex 5 0 2.5
      vertex 1.5244 0 12.0686
    endloop
  endfacet
  facet normal 0 -1 0
    outer loop
      vertex 0.631427 0 11.1756
      vertex 5 0 2.5
      vertex 1.16673 0 11.5333
    endloop
  endfacet
  facet normal 0 1 -0
    outer loop
      vertex 23.75 7.5 0
      vertex 5 7.5 2.5
      vertex 23.75 7.5 2.5
    endloop
  endfacet
  facet normal 0 1 0
    outer loop
      vertex 5 7.5 2.5
      vertex 23.75 7.5 0
      vertex -5 7.5 2.5
    endloop
  endfacet
  facet normal 0 1 0
    outer loop
      vertex -23.75 7.5 0
      vertex -5 7.5 2.5
      vertex 23.75 7.5 0
    endloop
  endfacet
  facet normal 0 1 0
    outer loop
      vertex -5 7.5 2.5
      vertex -23.75 7.5 0
      vertex -23.75 7.5 2.5
    endloop
  endfacet
  facet normal 0 1 0
    outer loop
      vertex 5 7.5 17.7
      vertex 0 7.5 14.35
      vertex -5 7.5 17.7
    endloop
  endfacet
  facet normal 0 1 0
    outer loop
      vertex 5 7.5 17.7
      vertex 0.631427 7.5 14.2244
      vertex 0 7.5 14.35
    endloop
  endfacet
  facet normal 0 1 0
    outer loop
      vertex 5 7.5 17.7
      vertex 1.16673 7.5 13.8667
      vertex 0.631427 7.5 14.2244
    endloop
  endfacet
  facet normal 0 1 0
    outer loop
      vertex 5 7.5 17.7
      vertex 1.5244 7.5 13.3314
      vertex 1.16673 7.5 13.8667
    endloop
  endfacet
  facet normal 0 1 0
    outer loop
      vertex 5 7.5 17.7
      vertex 1.65 7.5 12.7
      vertex 1.5244 7.5 13.3314
    endloop
  endfacet
  facet normal 0 1 0
    outer loop
      vertex 5 7.5 17.7
      vertex 1.5244 7.5 12.0686
      vertex 1.65 7.5 12.7
    endloop
  endfacet
  facet normal 0 1 0
    outer loop
      vertex 0.631427 7.5 11.1756
      vertex 5 7.5 2.5
      vertex 0 7.5 11.05
    endloop
  endfacet
  facet normal 0 1 0
    outer loop
      vertex 1.16673 7.5 11.5333
      vertex 5 7.5 2.5
      vertex 0.631427 7.5 11.1756
    endloop
  endfacet
  facet normal 0 1 0
    outer loop
      vertex 1.5244 7.5 12.0686
      vertex 5 7.5 2.5
      vertex 1.16673 7.5 11.5333
    endloop
  endfacet
  facet normal 0 1 -0
    outer loop
      vertex 5 7.5 2.5
      vertex 1.5244 7.5 12.0686
      vertex 5 7.5 17.7
    endloop
  endfacet
  facet normal 0 1 -0
    outer loop
      vertex -0.631427 7.5 14.2244
      vertex -5 7.5 17.7
      vertex 0 7.5 14.35
    endloop
  endfacet
  facet normal 0 1 -0
    outer loop
      vertex -1.16673 7.5 13.8667
      vertex -5 7.5 17.7
      vertex -0.631427 7.5 14.2244
    endloop
  endfacet
  facet normal 0 1 -0
    outer loop
      vertex -1.5244 7.5 13.3314
      vertex -5 7.5 17.7
      vertex -1.16673 7.5 13.8667
    endloop
  endfacet
  facet normal 0 1 -0
    outer loop
      vertex -1.65 7.5 12.7
      vertex -5 7.5 17.7
      vertex -1.5244 7.5 13.3314
    endloop
  endfacet
  facet normal 0 1 0
    outer loop
      vertex -1.5244 7.5 12.0686
      vertex -5 7.5 17.7
      vertex -1.65 7.5 12.7
    endloop
  endfacet
  facet normal 0 1 0
    outer loop
      vertex -5 7.5 2.5
      vertex 0 7.5 11.05
      vertex 5 7.5 2.5
    endloop
  endfacet
  facet normal 0 1 0
    outer loop
      vertex 0 7.5 11.05
      vertex -5 7.5 2.5
      vertex -0.631427 7.5 11.1756
    endloop
  endfacet
  facet normal 0 1 0
    outer loop
      vertex -1.5244 7.5 12.0686
      vertex -5 7.5 2.5
      vertex -5 7.5 17.7
    endloop
  endfacet
  facet normal 0 1 0
    outer loop
      vertex -1.16673 7.5 11.5333
      vertex -5 7.5 2.5
      vertex -1.5244 7.5 12.0686
    endloop
  endfacet
  facet normal 0 1 0
    outer loop
      vertex -0.631427 7.5 11.1756
      vertex -5 7.5 2.5
      vertex -1.16673 7.5 11.5333
    endloop
  endfacet
  facet normal -1 0 0
    outer loop
      vertex -5 0 2.5
      vertex -5 7.5 17.7
      vertex -5 7.5 2.5
    endloop
  endfacet
  facet normal -1 -0 0
    outer loop
      vertex -5 7.5 17.7
      vertex -5 0 2.5
      vertex -5 0 17.7
    endloop
  endfacet
  facet normal -0 0 1
    outer loop
      vertex -5 7.5 17.7
      vertex 5 0 17.7
      vertex 5 7.5 17.7
    endloop
  endfacet
  facet normal 0 0 1
    outer loop
      vertex 5 0 17.7
      vertex -5 7.5 17.7
      vertex -5 0 17.7
    endloop
  endfacet
  facet normal 1 -0 0
    outer loop
      vertex 5 0 17.7
      vertex 5 7.5 2.5
      vertex 5 7.5 17.7
    endloop
  endfacet
  facet normal 1 0 0
    outer loop
      vertex 5 7.5 2.5
      vertex 5 0 17.7
      vertex 5 0 2.5
    endloop
  endfacet
  facet normal -0.980786 -0.195088 0
    outer loop
      vertex -18.25 3.75 0
      vertex -18.3832 4.4197 2.5
      vertex -18.3832 4.4197 0
    endloop
  endfacet
  facet normal -0.980786 -0.195088 0
    outer loop
      vertex -18.3832 4.4197 2.5
      vertex -18.25 3.75 0
      vertex -18.25 3.75 2.5
    endloop
  endfacet
  facet normal 0.980785 -0.195091 0
    outer loop
      vertex -21.75 3.75 2.5
      vertex -21.6168 4.4197 0
      vertex -21.6168 4.4197 2.5
    endloop
  endfacet
  facet normal 0.980785 -0.195091 0
    outer loop
      vertex -21.6168 4.4197 0
      vertex -21.75 3.75 2.5
      vertex -21.75 3.75 0
    endloop
  endfacet
  facet normal 0.980785 0.195091 0
    outer loop
      vertex -21.6168 3.0803 2.5
      vertex -21.75 3.75 0
      vertex -21.75 3.75 2.5
    endloop
  endfacet
  facet normal 0.980785 0.195091 0
    outer loop
      vertex -21.75 3.75 0
      vertex -21.6168 3.0803 2.5
      vertex -21.6168 3.0803 0
    endloop
  endfacet
  facet normal -0.195091 -0.980785 0
    outer loop
      vertex -20 5.5 0
      vertex -19.3303 5.36679 2.5
      vertex -20 5.5 2.5
    endloop
  endfacet
  facet normal -0.195091 -0.980785 -0
    outer loop
      vertex -19.3303 5.36679 2.5
      vertex -20 5.5 0
      vertex -19.3303 5.36679 0
    endloop
  endfacet
  facet normal -0.55557 -0.83147 0
    outer loop
      vertex -19.3303 5.36679 0
      vertex -18.7626 4.98744 2.5
      vertex -19.3303 5.36679 2.5
    endloop
  endfacet
  facet normal -0.55557 -0.83147 -0
    outer loop
      vertex -18.7626 4.98744 2.5
      vertex -19.3303 5.36679 0
      vertex -18.7626 4.98744 0
    endloop
  endfacet
  facet normal -0.831469 -0.555571 0
    outer loop
      vertex -18.3832 4.4197 0
      vertex -18.7626 4.98744 2.5
      vertex -18.7626 4.98744 0
    endloop
  endfacet
  facet normal -0.831469 -0.555571 0
    outer loop
      vertex -18.7626 4.98744 2.5
      vertex -18.3832 4.4197 0
      vertex -18.3832 4.4197 2.5
    endloop
  endfacet
  facet normal 0.195091 -0.980785 0
    outer loop
      vertex -20.6697 5.36679 0
      vertex -20 5.5 2.5
      vertex -20.6697 5.36679 2.5
    endloop
  endfacet
  facet normal 0.195091 -0.980785 0
    outer loop
      vertex -20 5.5 2.5
      vertex -20.6697 5.36679 0
      vertex -20 5.5 0
    endloop
  endfacet
  facet normal 0.831469 -0.555571 0
    outer loop
      vertex -21.6168 4.4197 2.5
      vertex -21.2374 4.98744 0
      vertex -21.2374 4.98744 2.5
    endloop
  endfacet
  facet normal 0.831469 -0.555571 0
    outer loop
      vertex -21.2374 4.98744 0
      vertex -21.6168 4.4197 2.5
      vertex -21.6168 4.4197 0
    endloop
  endfacet
  facet normal 0.555571 -0.831469 0
    outer loop
      vertex -21.2374 4.98744 0
      vertex -20.6697 5.36679 2.5
      vertex -21.2374 4.98744 2.5
    endloop
  endfacet
  facet normal 0.555571 -0.831469 0
    outer loop
      vertex -20.6697 5.36679 2.5
      vertex -21.2374 4.98744 0
      vertex -20.6697 5.36679 0
    endloop
  endfacet
  facet normal -0.55557 0.83147 0
    outer loop
      vertex -18.7626 2.51256 0
      vertex -19.3303 2.13321 2.5
      vertex -18.7626 2.51256 2.5
    endloop
  endfacet
  facet normal -0.55557 0.83147 0
    outer loop
      vertex -19.3303 2.13321 2.5
      vertex -18.7626 2.51256 0
      vertex -19.3303 2.13321 0
    endloop
  endfacet
  facet normal -0.831469 0.555571 0
    outer loop
      vertex -18.7626 2.51256 0
      vertex -18.3832 3.0803 2.5
      vertex -18.3832 3.0803 0
    endloop
  endfacet
  facet normal -0.831469 0.555571 0
    outer loop
      vertex -18.3832 3.0803 2.5
      vertex -18.7626 2.51256 0
      vertex -18.7626 2.51256 2.5
    endloop
  endfacet
  facet normal -0.980786 0.195088 0
    outer loop
      vertex -18.3832 3.0803 0
      vertex -18.25 3.75 2.5
      vertex -18.25 3.75 0
    endloop
  endfacet
  facet normal -0.980786 0.195088 0
    outer loop
      vertex -18.25 3.75 2.5
      vertex -18.3832 3.0803 0
      vertex -18.3832 3.0803 2.5
    endloop
  endfacet
  facet normal 0.831469 0.555571 0
    outer loop
      vertex -21.2374 2.51256 2.5
      vertex -21.6168 3.0803 0
      vertex -21.6168 3.0803 2.5
    endloop
  endfacet
  facet normal 0.831469 0.555571 0
    outer loop
      vertex -21.6168 3.0803 0
      vertex -21.2374 2.51256 2.5
      vertex -21.2374 2.51256 0
    endloop
  endfacet
  facet normal -0.195089 0.980786 0
    outer loop
      vertex -19.3303 2.13321 0
      vertex -20 2 2.5
      vertex -19.3303 2.13321 2.5
    endloop
  endfacet
  facet normal -0.195089 0.980786 0
    outer loop
      vertex -20 2 2.5
      vertex -19.3303 2.13321 0
      vertex -20 2 0
    endloop
  endfacet
  facet normal 0.195089 0.980786 -0
    outer loop
      vertex -20 2 0
      vertex -20.6697 2.13321 2.5
      vertex -20 2 2.5
    endloop
  endfacet
  facet normal 0.195089 0.980786 0
    outer loop
      vertex -20.6697 2.13321 2.5
      vertex -20 2 0
      vertex -20.6697 2.13321 0
    endloop
  endfacet
  facet normal 0.555571 0.831469 -0
    outer loop
      vertex -20.6697 2.13321 0
      vertex -21.2374 2.51256 2.5
      vertex -20.6697 2.13321 2.5
    endloop
  endfacet
  facet normal 0.555571 0.831469 0
    outer loop
      vertex -21.2374 2.51256 2.5
      vertex -20.6697 2.13321 0
      vertex -21.2374 2.51256 0
    endloop
  endfacet
  facet normal 0.980786 -0.195088 0
    outer loop
      vertex 18.25 3.75 2.5
      vertex 18.3832 4.4197 0
      vertex 18.3832 4.4197 2.5
    endloop
  endfacet
  facet normal 0.980786 -0.195088 0
    outer loop
      vertex 18.3832 4.4197 0
      vertex 18.25 3.75 2.5
      vertex 18.25 3.75 0
    endloop
  endfacet
  facet normal -0.195089 0.980786 0
    outer loop
      vertex 20.6697 2.13321 0
      vertex 20 2 2.5
      vertex 20.6697 2.13321 2.5
    endloop
  endfacet
  facet normal -0.195089 0.980786 0
    outer loop
      vertex 20 2 2.5
      vertex 20.6697 2.13321 0
      vertex 20 2 0
    endloop
  endfacet
  facet normal -0.195091 -0.980785 0
    outer loop
      vertex 20 5.5 0
      vertex 20.6697 5.36679 2.5
      vertex 20 5.5 2.5
    endloop
  endfacet
  facet normal -0.195091 -0.980785 -0
    outer loop
      vertex 20.6697 5.36679 2.5
      vertex 20 5.5 0
      vertex 20.6697 5.36679 0
    endloop
  endfacet
  facet normal 0.980786 0.195088 0
    outer loop
      vertex 18.3832 3.0803 2.5
      vertex 18.25 3.75 0
      vertex 18.25 3.75 2.5
    endloop
  endfacet
  facet normal 0.980786 0.195088 0
    outer loop
      vertex 18.25 3.75 0
      vertex 18.3832 3.0803 2.5
      vertex 18.3832 3.0803 0
    endloop
  endfacet
  facet normal 0.831469 -0.555571 0
    outer loop
      vertex 18.3832 4.4197 2.5
      vertex 18.7626 4.98744 0
      vertex 18.7626 4.98744 2.5
    endloop
  endfacet
  facet normal 0.831469 -0.555571 0
    outer loop
      vertex 18.7626 4.98744 0
      vertex 18.3832 4.4197 2.5
      vertex 18.3832 4.4197 0
    endloop
  endfacet
  facet normal 0.195091 -0.980785 0
    outer loop
      vertex 19.3303 5.36679 0
      vertex 20 5.5 2.5
      vertex 19.3303 5.36679 2.5
    endloop
  endfacet
  facet normal 0.195091 -0.980785 0
    outer loop
      vertex 20 5.5 2.5
      vertex 19.3303 5.36679 0
      vertex 20 5.5 0
    endloop
  endfacet
  facet normal -0.980785 -0.195091 0
    outer loop
      vertex 21.75 3.75 0
      vertex 21.6168 4.4197 2.5
      vertex 21.6168 4.4197 0
    endloop
  endfacet
  facet normal -0.980785 -0.195091 0
    outer loop
      vertex 21.6168 4.4197 2.5
      vertex 21.75 3.75 0
      vertex 21.75 3.75 2.5
    endloop
  endfacet
  facet normal -0.555571 -0.831469 0
    outer loop
      vertex 20.6697 5.36679 0
      vertex 21.2374 4.98744 2.5
      vertex 20.6697 5.36679 2.5
    endloop
  endfacet
  facet normal -0.555571 -0.831469 -0
    outer loop
      vertex 21.2374 4.98744 2.5
      vertex 20.6697 5.36679 0
      vertex 21.2374 4.98744 0
    endloop
  endfacet
  facet normal -0.831469 0.555571 0
    outer loop
      vertex 21.2374 2.51256 0
      vertex 21.6168 3.0803 2.5
      vertex 21.6168 3.0803 0
    endloop
  endfacet
  facet normal -0.831469 0.555571 0
    outer loop
      vertex 21.6168 3.0803 2.5
      vertex 21.2374 2.51256 0
      vertex 21.2374 2.51256 2.5
    endloop
  endfacet
  facet normal -0.980785 0.195091 0
    outer loop
      vertex 21.6168 3.0803 0
      vertex 21.75 3.75 2.5
      vertex 21.75 3.75 0
    endloop
  endfacet
  facet normal -0.980785 0.195091 0
    outer loop
      vertex 21.75 3.75 2.5
      vertex 21.6168 3.0803 0
      vertex 21.6168 3.0803 2.5
    endloop
  endfacet
  facet normal 0.195089 0.980786 -0
    outer loop
      vertex 20 2 0
      vertex 19.3303 2.13321 2.5
      vertex 20 2 2.5
    endloop
  endfacet
  facet normal 0.195089 0.980786 0
    outer loop
      vertex 19.3303 2.13321 2.5
      vertex 20 2 0
      vertex 19.3303 2.13321 0
    endloop
  endfacet
  facet normal 0.831469 0.555571 0
    outer loop
      vertex 18.7626 2.51256 2.5
      vertex 18.3832 3.0803 0
      vertex 18.3832 3.0803 2.5
    endloop
  endfacet
  facet normal 0.831469 0.555571 0
    outer loop
      vertex 18.3832 3.0803 0
      vertex 18.7626 2.51256 2.5
      vertex 18.7626 2.51256 0
    endloop
  endfacet
  facet normal 0.55557 -0.83147 0
    outer loop
      vertex 18.7626 4.98744 0
      vertex 19.3303 5.36679 2.5
      vertex 18.7626 4.98744 2.5
    endloop
  endfacet
  facet normal 0.55557 -0.83147 0
    outer loop
      vertex 19.3303 5.36679 2.5
      vertex 18.7626 4.98744 0
      vertex 19.3303 5.36679 0
    endloop
  endfacet
  facet normal -0.831469 -0.555571 0
    outer loop
      vertex 21.6168 4.4197 0
      vertex 21.2374 4.98744 2.5
      vertex 21.2374 4.98744 0
    endloop
  endfacet
  facet normal -0.831469 -0.555571 0
    outer loop
      vertex 21.2374 4.98744 2.5
      vertex 21.6168 4.4197 0
      vertex 21.6168 4.4197 2.5
    endloop
  endfacet
  facet normal -0.555571 0.831469 0
    outer loop
      vertex 21.2374 2.51256 0
      vertex 20.6697 2.13321 2.5
      vertex 21.2374 2.51256 2.5
    endloop
  endfacet
  facet normal -0.555571 0.831469 0
    outer loop
      vertex 20.6697 2.13321 2.5
      vertex 21.2374 2.51256 0
      vertex 20.6697 2.13321 0
    endloop
  endfacet
  facet normal 0.55557 0.83147 -0
    outer loop
      vertex 19.3303 2.13321 0
      vertex 18.7626 2.51256 2.5
      vertex 19.3303 2.13321 2.5
    endloop
  endfacet
  facet normal 0.55557 0.83147 0
    outer loop
      vertex 18.7626 2.51256 2.5
      vertex 19.3303 2.13321 0
      vertex 18.7626 2.51256 0
    endloop
  endfacet
  facet normal -0.980785 0 0.19509
    outer loop
      vertex 1.5244 0 12.0686
      vertex 1.65 7.5 12.7
      vertex 1.5244 7.5 12.0686
    endloop
  endfacet
  facet normal -0.980785 0 0.19509
    outer loop
      vertex 1.65 7.5 12.7
      vertex 1.5244 0 12.0686
      vertex 1.65 0 12.7
    endloop
  endfacet
  facet normal 0.980785 -0 0.19509
    outer loop
      vertex -1.65 0 12.7
      vertex -1.5244 7.5 12.0686
      vertex -1.65 7.5 12.7
    endloop
  endfacet
  facet normal 0.980785 0 0.19509
    outer loop
      vertex -1.5244 7.5 12.0686
      vertex -1.65 0 12.7
      vertex -1.5244 0 12.0686
    endloop
  endfacet
  facet normal -0.195091 0 0.980785
    outer loop
      vertex 0 7.5 11.05
      vertex 0.631427 0 11.1756
      vertex 0.631427 7.5 11.1756
    endloop
  endfacet
  facet normal -0.195091 0 0.980785
    outer loop
      vertex 0.631427 0 11.1756
      vertex 0 7.5 11.05
      vertex 0 0 11.05
    endloop
  endfacet
  facet normal -0.83147 0 0.55557
    outer loop
      vertex 1.16673 0 11.5333
      vertex 1.5244 7.5 12.0686
      vertex 1.16673 7.5 11.5333
    endloop
  endfacet
  facet normal -0.83147 0 0.55557
    outer loop
      vertex 1.5244 7.5 12.0686
      vertex 1.16673 0 11.5333
      vertex 1.5244 0 12.0686
    endloop
  endfacet
  facet normal -0.195091 0 -0.980785
    outer loop
      vertex 0 0 14.35
      vertex 0.631427 7.5 14.2244
      vertex 0.631427 0 14.2244
    endloop
  endfacet
  facet normal -0.195091 0 -0.980785
    outer loop
      vertex 0.631427 7.5 14.2244
      vertex 0 0 14.35
      vertex 0 7.5 14.35
    endloop
  endfacet
  facet normal 0.195091 0 -0.980785
    outer loop
      vertex -0.631427 0 14.2244
      vertex 0 7.5 14.35
      vertex 0 0 14.35
    endloop
  endfacet
  facet normal 0.195091 0 -0.980785
    outer loop
      vertex 0 7.5 14.35
      vertex -0.631427 0 14.2244
      vertex -0.631427 7.5 14.2244
    endloop
  endfacet
  facet normal -0.55557 0 0.83147
    outer loop
      vertex 0.631427 7.5 11.1756
      vertex 1.16673 0 11.5333
      vertex 1.16673 7.5 11.5333
    endloop
  endfacet
  facet normal -0.55557 0 0.83147
    outer loop
      vertex 1.16673 0 11.5333
      vertex 0.631427 7.5 11.1756
      vertex 0.631427 0 11.1756
    endloop
  endfacet
  facet normal 0.195091 0 0.980785
    outer loop
      vertex -0.631427 7.5 11.1756
      vertex 0 0 11.05
      vertex 0 7.5 11.05
    endloop
  endfacet
  facet normal 0.195091 0 0.980785
    outer loop
      vertex 0 0 11.05
      vertex -0.631427 7.5 11.1756
      vertex -0.631427 0 11.1756
    endloop
  endfacet
  facet normal 0.55557 0 0.83147
    outer loop
      vertex -1.16673 7.5 11.5333
      vertex -0.631427 0 11.1756
      vertex -0.631427 7.5 11.1756
    endloop
  endfacet
  facet normal 0.55557 0 0.83147
    outer loop
      vertex -0.631427 0 11.1756
      vertex -1.16673 7.5 11.5333
      vertex -1.16673 0 11.5333
    endloop
  endfacet
  facet normal 0.980785 0 -0.19509
    outer loop
      vertex -1.5244 0 13.3314
      vertex -1.65 7.5 12.7
      vertex -1.5244 7.5 13.3314
    endloop
  endfacet
  facet normal 0.980785 0 -0.19509
    outer loop
      vertex -1.65 7.5 12.7
      vertex -1.5244 0 13.3314
      vertex -1.65 0 12.7
    endloop
  endfacet
  facet normal 0.555569 0 -0.83147
    outer loop
      vertex -1.16673 0 13.8667
      vertex -0.631427 7.5 14.2244
      vertex -0.631427 0 14.2244
    endloop
  endfacet
  facet normal 0.555569 0 -0.83147
    outer loop
      vertex -0.631427 7.5 14.2244
      vertex -1.16673 0 13.8667
      vertex -1.16673 7.5 13.8667
    endloop
  endfacet
  facet normal 0.83147 -0 0.55557
    outer loop
      vertex -1.5244 0 12.0686
      vertex -1.16673 7.5 11.5333
      vertex -1.5244 7.5 12.0686
    endloop
  endfacet
  facet normal 0.83147 0 0.55557
    outer loop
      vertex -1.16673 7.5 11.5333
      vertex -1.5244 0 12.0686
      vertex -1.16673 0 11.5333
    endloop
  endfacet
  facet normal -0.83147 0 -0.55557
    outer loop
      vertex 1.5244 0 13.3314
      vertex 1.16673 7.5 13.8667
      vertex 1.5244 7.5 13.3314
    endloop
  endfacet
  facet normal -0.83147 -0 -0.55557
    outer loop
      vertex 1.16673 7.5 13.8667
      vertex 1.5244 0 13.3314
      vertex 1.16673 0 13.8667
    endloop
  endfacet
  facet normal -0.555569 0 -0.83147
    outer loop
      vertex 0.631427 0 14.2244
      vertex 1.16673 7.5 13.8667
      vertex 1.16673 0 13.8667
    endloop
  endfacet
  facet normal -0.555569 0 -0.83147
    outer loop
      vertex 1.16673 7.5 13.8667
      vertex 0.631427 0 14.2244
      vertex 0.631427 7.5 14.2244
    endloop
  endfacet
  facet normal -0.980785 0 -0.19509
    outer loop
      vertex 1.65 0 12.7
      vertex 1.5244 7.5 13.3314
      vertex 1.65 7.5 12.7
    endloop
  endfacet
  facet normal -0.980785 -0 -0.19509
    outer loop
      vertex 1.5244 7.5 13.3314
      vertex 1.65 0 12.7
      vertex 1.5244 0 13.3314
    endloop
  endfacet
  facet normal 0.83147 0 -0.55557
    outer loop
      vertex -1.16673 0 13.8667
      vertex -1.5244 7.5 13.3314
      vertex -1.16673 7.5 13.8667
    endloop
  endfacet
  facet normal 0.83147 0 -0.55557
    outer loop
      vertex -1.5244 7.5 13.3314
      vertex -1.16673 0 13.8667
      vertex -1.5244 0 13.3314
    endloop
  endfacet
endsolid OpenSCAD_Model
